<?xml version="1.0" encoding="utf-8"?>
<!-- Generator: Adobe Illustrator 26.4.1, SVG Export Plug-In . SVG Version: 6.00 Build 0)  -->
<svg version="1.1" id="Layer_1" xmlns="http://www.w3.org/2000/svg" xmlns:xlink="http://www.w3.org/1999/xlink" x="0px" y="0px"
	 viewBox="0 0 194.6 39.3" style="enable-background:new 0 0 194.6 39.3;" xml:space="preserve">
<style type="text/css">
	.st0{fill:#026666;}
	.st1{fill:#565656;}
</style>
<g>
	<path class="st0" d="M4.4,1.1h3.9l4.8,14.5l4.9-14.5h3.8L25.3,22h-3.8L19.2,8.8L14.8,22h-3.5L6.9,8.8L4.6,22H0.8L4.4,1.1z"/>
	<path class="st0" d="M42.5,19c-1.7,2.4-3.8,3.4-7.1,3.4c-4.9,0-8.1-3.6-8.1-8.1c0-4.2,3-8.1,8-8.1s8.2,3.5,8.2,8.4
		c0,0.4,0,0.5,0,0.9H31.1c0.4,2.3,2.1,3.6,4.3,3.6c1.7,0,2.8-0.5,3.8-1.5L42.5,19L42.5,19z M39.7,12.3c-0.5-1.8-2.2-2.9-4.2-2.9
		c-1.9,0-3.4,1-4.2,2.9H39.7z"/>
	<path class="st0" d="M58,20.3c-1.4,1.3-2.8,2-4.8,2c-3.9,0-7.3-3.4-7.3-8.1s3.2-8.1,7.3-8.1c1.9,0,3.5,0.7,4.8,2.1V0.6h3.9V22H58
		C58,22,58,20.3,58,20.3z M49.8,14.2c0,2.6,1.7,4.6,4.2,4.6s4.2-1.8,4.2-4.6S56.4,9.7,54,9.7S49.8,11.7,49.8,14.2z"/>
	<path class="st0" d="M69.8,2.7c0,1.4-1.1,2.5-2.5,2.5S64.9,4,64.9,2.5c0-1.3,1.1-2.3,2.5-2.3S69.8,1.4,69.8,2.7L69.8,2.7z
		 M65.4,6.5h3.9V22h-3.9V6.5z"/>
	<path class="st0" d="M87.7,19.1c-1.7,2.1-4,3.2-7,3.2c-5.3,0-8.7-3.6-8.7-8.1s3.6-8.2,8.7-8.2c3,0,5.6,1.2,7.1,3.5l-3.2,1.8
		c-1.1-1.2-2.2-1.7-3.9-1.7c-3,0-4.8,2-4.8,4.7s1.8,4.5,4.7,4.5c1.7,0,3.1-0.6,4-1.8L87.7,19.1L87.7,19.1z"/>
	<path class="st0" d="M100.8,20.3c-1.4,1.3-2.8,2-4.8,2c-3.9,0-7.3-3.4-7.3-8.1s3.2-8.1,7.3-8.1c1.9,0,3.5,0.7,4.8,2.1V6.5h3.9V22
		h-3.9C100.8,22,100.8,20.3,100.8,20.3z M92.5,14.2c0,2.6,1.7,4.6,4.2,4.6s4.2-1.8,4.2-4.6s-1.8-4.5-4.2-4.5S92.5,11.7,92.5,14.2z"
		/>
	<path class="st0" d="M112.5,2.7c0,1.4-1.1,2.5-2.5,2.5s-2.5-1.2-2.5-2.7c0-1.3,1.1-2.3,2.5-2.3S112.5,1.4,112.5,2.7L112.5,2.7z
		 M108.1,6.5h3.9V22h-3.9V6.5z"/>
	<path class="st0" d="M126.9,20.3c-1.4,1.3-2.8,2-4.8,2c-3.9,0-7.3-3.4-7.3-8.1s3.2-8.1,7.3-8.1c1.9,0,3.5,0.7,4.8,2.1V0.6h3.9V22
		h-3.9C126.9,22,126.9,20.3,126.9,20.3z M118.7,14.2c0,2.6,1.7,4.6,4.2,4.6s4.2-1.8,4.2-4.6s-1.8-4.5-4.2-4.5S118.7,11.7,118.7,14.2
		z"/>
	<path class="st1" d="M138.8,20.6c0,1-0.8,1.8-1.7,1.8s-1.7-0.8-1.7-1.8s0.8-1.8,1.7-1.8S138.8,19.6,138.8,20.6z"/>
	<path class="st1" d="M158.2,18.8c0,2.5-0.1,4.6-1.4,6.3c-1.3,1.8-3.6,2.8-6.5,2.8c-4.4,0-6.6-1.8-8-4.8h2.1c1.2,2,3,3,5.7,3
		c2.6,0,4.4-0.9,5.4-2.6c0.6-1.1,0.7-2.2,0.7-3.4V19c-1.5,2-3.8,2.9-6.2,2.9c-4.3,0-7.9-3.2-7.9-7.8s3.8-8,7.9-8
		c2.7,0,4.6,1.2,6.2,3.1V6.6h2L158.2,18.8L158.2,18.8z M144.2,14.3c0,3.1,2.2,5.8,6.2,5.8c3.4,0,5.9-2.3,5.9-5.9s-2.8-6.1-5.9-6.1
		C146.9,8.1,144.2,10.7,144.2,14.3L144.2,14.3z"/>
	<path class="st1" d="M177.8,14.3c0,4.4-3.4,8.1-8,8.1s-8-3.7-8-8.1s3.4-8.2,8-8.2S177.8,9.9,177.8,14.3z M163.8,14.3
		c0,3.4,2.5,6.1,6,6.1s6-2.8,6-6.1s-2.7-6.3-6-6.3S163.8,10.9,163.8,14.3z"/>
	<path class="st1" d="M180,6.5h2.1l5.2,11.2l5.1-11.2h2.1L187.5,22h-0.4L180,6.5L180,6.5z"/>
</g>
<g>
	<path class="st1" d="M7.4,36.1H6.3l-3.1-4.1l-0.9,0.8v3.4h-1v-8.6h1v4.2l3.9-4.2h1.2l-3.4,3.7L7.4,36.1L7.4,36.1z"/>
	<path class="st1" d="M11.2,36.2c-0.9,0-1.7-0.3-2.2-0.9S8.1,34,8.1,32.9c0-1,0.2-1.9,0.8-2.5s1.2-0.9,2.1-0.9
		c0.8,0,1.4,0.3,1.9,0.8s0.7,1.2,0.7,2.1v0.6H9.1c0,0.8,0.2,1.3,0.6,1.7s0.9,0.6,1.5,0.6c0.7,0,1.4-0.1,2.1-0.4v0.9
		c-0.3,0.2-0.7,0.2-1,0.3S11.6,36.2,11.2,36.2L11.2,36.2z M10.9,30.4c-0.5,0-0.9,0.2-1.2,0.5s-0.5,0.8-0.5,1.4h3.4
		c0-0.6-0.1-1.1-0.4-1.4S11.4,30.4,10.9,30.4L10.9,30.4z"/>
	<path class="st1" d="M17.9,36.2c-1,0-1.7-0.3-2.2-0.9s-0.8-1.4-0.8-2.4c0-1,0.2-1.9,0.8-2.5s1.2-0.9,2-0.9c0.8,0,1.4,0.3,1.9,0.8
		s0.7,1.2,0.7,2.1v0.6h-4.4c0,0.8,0.2,1.3,0.6,1.7s0.9,0.6,1.5,0.6c0.7,0,1.4-0.1,2-0.4v0.9c-0.3,0.2-0.7,0.2-1,0.3
		S18.3,36.2,17.9,36.2L17.9,36.2z M17.6,30.4c-0.5,0-0.9,0.2-1.2,0.5s-0.5,0.8-0.5,1.4h3.4c0-0.6-0.1-1.1-0.4-1.4
		S18.2,30.4,17.6,30.4L17.6,30.4z"/>
	<path class="st1" d="M24.9,36.2c-0.4,0-0.8-0.1-1.1-0.2s-0.6-0.4-0.9-0.7h-0.1c0,0.4,0.1,0.7,0.1,1.1V39h-1v-9.3h0.8l0.1,0.9h0
		c0.2-0.4,0.5-0.6,0.9-0.8s0.7-0.2,1.1-0.2c0.9,0,1.5,0.3,2,0.9s0.7,1.4,0.7,2.4c0,1-0.2,1.9-0.7,2.5S25.7,36.2,24.9,36.2L24.9,36.2
		z M24.8,30.4c-0.7,0-1.1,0.2-1.4,0.5s-0.4,0.9-0.5,1.7v0.2c0,0.9,0.1,1.5,0.5,1.9s0.8,0.6,1.5,0.6c0.5,0,1-0.2,1.3-0.7
		s0.5-1.1,0.5-1.9s-0.2-1.4-0.5-1.8S25.3,30.4,24.8,30.4z"/>
	<path class="st1" d="M29.2,27.9c0-0.2,0-0.4,0.2-0.5s0.2-0.2,0.4-0.2s0.3,0,0.4,0.2s0.2,0.3,0.2,0.5s-0.1,0.4-0.2,0.5
		s-0.2,0.2-0.4,0.2c-0.2,0-0.3,0-0.4-0.2S29.2,28.2,29.2,27.9z M30.2,36.1h-1v-6.4h1V36.1z"/>
	<path class="st1" d="M36.7,36.1v-4.1c0-0.5-0.1-0.9-0.4-1.2s-0.6-0.4-1.1-0.4c-0.7,0-1.2,0.2-1.5,0.5s-0.5,1-0.5,1.8v3.4h-1v-6.4
		h0.8l0.2,0.9h0c0.2-0.3,0.5-0.6,0.8-0.7s0.8-0.3,1.2-0.3c0.8,0,1.4,0.2,1.8,0.6s0.6,1,0.6,1.8v4.2L36.7,36.1L36.7,36.1z"/>
	<path class="st1" d="M44.9,29.7v0.6l-1.2,0.1c0.1,0.1,0.2,0.3,0.3,0.5s0.1,0.5,0.1,0.7c0,0.6-0.2,1.1-0.6,1.5s-1,0.6-1.8,0.6
		c-0.2,0-0.4,0-0.5,0c-0.4,0.2-0.6,0.5-0.6,0.8c0,0.2,0.1,0.3,0.2,0.4s0.4,0.1,0.7,0.1h1.1c0.7,0,1.2,0.2,1.6,0.4s0.6,0.7,0.6,1.3
		c0,0.7-0.3,1.2-0.9,1.6S42.6,39,41.5,39c-0.8,0-1.5-0.2-1.9-0.5s-0.7-0.8-0.7-1.3c0-0.4,0.1-0.7,0.4-1s0.6-0.5,1-0.6
		c-0.2-0.1-0.3-0.2-0.4-0.3s-0.2-0.3-0.2-0.5c0-0.2,0.1-0.4,0.2-0.6s0.3-0.3,0.6-0.5c-0.3-0.1-0.6-0.4-0.8-0.7s-0.3-0.7-0.3-1.1
		c0-0.7,0.2-1.2,0.6-1.6s1-0.6,1.8-0.6c0.3,0,0.6,0,0.9,0.1L44.9,29.7L44.9,29.7z M39.8,37.2c0,0.3,0.2,0.6,0.4,0.8s0.7,0.3,1.3,0.3
		c0.8,0,1.4-0.1,1.8-0.4s0.6-0.6,0.6-1c0-0.3-0.1-0.6-0.3-0.7S43,36,42.4,36h-1.2c-0.4,0-0.8,0.1-1,0.3S39.8,36.8,39.8,37.2
		L39.8,37.2z M40.3,31.7c0,0.4,0.1,0.8,0.4,1s0.6,0.3,1.1,0.3c1,0,1.4-0.5,1.4-1.4c0-0.9-0.5-1.5-1.4-1.5c-0.5,0-0.8,0.1-1,0.4
		S40.3,31.3,40.3,31.7L40.3,31.7z"/>
	<path class="st1" d="M54.9,36.1l-1.1-2.7h-3.4l-1,2.7h-1l3.4-8.6h0.8l3.4,8.6H54.9L54.9,36.1z M53.5,32.5l-1-2.6
		c-0.1-0.3-0.3-0.8-0.4-1.2c-0.1,0.4-0.2,0.8-0.4,1.2l-1,2.6H53.5L53.5,32.5z"/>
	<path class="st1" d="M65.2,36.1v-4.2c0-0.5-0.1-0.9-0.3-1.1s-0.6-0.4-1-0.4c-0.6,0-1,0.2-1.3,0.5S62,31.8,62,32.5v3.6h-1v-4.2
		c0-0.5-0.1-0.9-0.3-1.1s-0.6-0.4-1-0.4c-0.6,0-1.1,0.2-1.3,0.5s-0.4,1-0.4,1.8v3.4h-1v-6.4h0.8l0.2,0.9h0c0.2-0.3,0.4-0.6,0.8-0.7
		s0.7-0.3,1.1-0.3c1,0,1.7,0.4,2,1.1h0c0.2-0.3,0.5-0.6,0.8-0.8s0.8-0.3,1.2-0.3c0.7,0,1.3,0.2,1.6,0.6s0.5,1,0.5,1.8v4.2L65.2,36.1
		L65.2,36.1z"/>
	<path class="st1" d="M70.8,36.2c-0.9,0-1.7-0.3-2.2-0.9s-0.8-1.4-0.8-2.4c0-1,0.2-1.9,0.8-2.5s1.2-0.9,2.1-0.9
		c0.8,0,1.4,0.3,1.9,0.8s0.7,1.2,0.7,2.1v0.6h-4.4c0,0.8,0.2,1.3,0.6,1.7s0.9,0.6,1.5,0.6c0.7,0,1.4-0.1,2.1-0.4v0.9
		c-0.3,0.2-0.7,0.2-1,0.3S71.3,36.2,70.8,36.2L70.8,36.2z M70.6,30.4c-0.5,0-0.9,0.2-1.2,0.5s-0.5,0.8-0.5,1.4h3.4
		c0-0.6-0.1-1.1-0.4-1.4S71.1,30.4,70.6,30.4L70.6,30.4z"/>
	<path class="st1" d="M77.8,29.6c0.3,0,0.5,0,0.8,0.1l-0.1,0.9c-0.3-0.1-0.5-0.1-0.7-0.1c-0.5,0-1,0.2-1.3,0.6
		c-0.4,0.4-0.6,0.9-0.6,1.6v3.5h-1v-6.4h0.8l0.1,1.2h0.1c0.2-0.4,0.5-0.7,0.9-1S77.4,29.6,77.8,29.6L77.8,29.6z"/>
	<path class="st1" d="M79.7,27.9c0-0.2,0.1-0.4,0.2-0.5s0.2-0.2,0.4-0.2s0.3,0,0.4,0.2s0.2,0.3,0.2,0.5s-0.1,0.4-0.2,0.5
		s-0.2,0.2-0.4,0.2c-0.2,0-0.3,0-0.4-0.2S79.7,28.2,79.7,27.9z M80.7,36.1h-1v-6.4h1V36.1z"/>
	<path class="st1" d="M85.4,36.2c-0.9,0-1.7-0.3-2.2-0.9s-0.8-1.4-0.8-2.4c0-1,0.3-1.9,0.8-2.5s1.2-0.9,2.2-0.9c0.3,0,0.6,0,0.9,0.1
		s0.6,0.1,0.7,0.2l-0.3,0.8c-0.2-0.1-0.4-0.2-0.7-0.2s-0.5-0.1-0.7-0.1c-1.3,0-2,0.8-2,2.5c0,0.8,0.2,1.4,0.5,1.8s0.8,0.6,1.4,0.6
		c0.5,0,1.1-0.1,1.7-0.3v0.9C86.6,36.1,86,36.2,85.4,36.2L85.4,36.2z"/>
	<path class="st1" d="M92.5,36.1l-0.2-0.9h-0.1c-0.3,0.4-0.6,0.7-1,0.8s-0.7,0.2-1.2,0.2c-0.6,0-1.1-0.2-1.5-0.5S88,34.9,88,34.3
		c0-1.3,1-2,3.1-2l1.1,0v-0.4c0-0.5-0.1-0.9-0.3-1.1s-0.6-0.4-1-0.4c-0.5,0-1.1,0.2-1.8,0.5l-0.3-0.7c0.3-0.2,0.7-0.3,1-0.4
		s0.8-0.1,1.1-0.1c0.8,0,1.3,0.2,1.7,0.5s0.6,0.9,0.6,1.6v4.4L92.5,36.1L92.5,36.1z M90.3,35.4c0.6,0,1.1-0.2,1.4-0.5
		s0.5-0.8,0.5-1.4v-0.6l-1,0c-0.8,0-1.3,0.2-1.7,0.4s-0.5,0.5-0.5,1c0,0.3,0.1,0.6,0.3,0.8S89.9,35.4,90.3,35.4L90.3,35.4z"/>
	<path class="st1" d="M105,36.1h-1v-4h-4.5v4h-1v-8.6h1v3.6h4.5v-3.6h1V36.1z"/>
	<path class="st1" d="M109.9,36.2c-0.9,0-1.7-0.3-2.2-0.9s-0.8-1.4-0.8-2.4c0-1,0.2-1.9,0.8-2.5s1.2-0.9,2.1-0.9
		c0.8,0,1.4,0.3,1.9,0.8s0.7,1.2,0.7,2.1v0.6h-4.4c0,0.8,0.2,1.3,0.6,1.7s0.9,0.6,1.5,0.6c0.7,0,1.4-0.1,2.1-0.4v0.9
		c-0.3,0.2-0.7,0.2-1,0.3S110.3,36.2,109.9,36.2L109.9,36.2z M109.6,30.4c-0.5,0-0.9,0.2-1.2,0.5s-0.5,0.8-0.5,1.4h3.4
		c0-0.6-0.1-1.1-0.4-1.4S110.1,30.4,109.6,30.4L109.6,30.4z"/>
	<path class="st1" d="M117.8,36.1l-0.2-0.9h-0.1c-0.3,0.4-0.6,0.7-1,0.8s-0.7,0.2-1.2,0.2c-0.6,0-1.1-0.2-1.5-0.5s-0.5-0.8-0.5-1.4
		c0-1.3,1-2,3.1-2l1.1,0v-0.4c0-0.5-0.1-0.9-0.3-1.1s-0.6-0.4-1-0.4c-0.5,0-1.1,0.2-1.8,0.5l-0.3-0.7c0.3-0.2,0.7-0.3,1-0.4
		s0.8-0.1,1.1-0.1c0.8,0,1.3,0.2,1.7,0.5s0.6,0.9,0.6,1.6v4.4L117.8,36.1L117.8,36.1z M115.6,35.4c0.6,0,1.1-0.2,1.4-0.5
		s0.5-0.8,0.5-1.4v-0.6l-1,0c-0.8,0-1.3,0.2-1.7,0.4s-0.5,0.5-0.5,1c0,0.3,0.1,0.6,0.3,0.8S115.3,35.4,115.6,35.4L115.6,35.4z"/>
	<path class="st1" d="M121.5,36.1h-1V27h1V36.1z"/>
	<path class="st1" d="M125.7,35.4c0.2,0,0.3,0,0.5,0s0.3,0,0.4-0.1V36c-0.1,0-0.3,0.1-0.5,0.1s-0.4,0-0.6,0c-1.2,0-1.9-0.7-1.9-2
		v-3.8h-0.9V30l0.9-0.4l0.4-1.4h0.6v1.5h1.9v0.8h-1.9v3.8c0,0.4,0.1,0.7,0.3,0.9S125.4,35.4,125.7,35.4L125.7,35.4z"/>
	<path class="st1" d="M132.2,36.1v-4.1c0-0.5-0.1-0.9-0.4-1.2s-0.6-0.4-1.1-0.4c-0.7,0-1.2,0.2-1.5,0.5s-0.5,1-0.5,1.8v3.4h-1V27h1
		v2.8c0,0.3,0,0.6-0.1,0.8h0.1c0.2-0.3,0.5-0.5,0.8-0.7s0.8-0.3,1.2-0.3c0.8,0,1.4,0.2,1.8,0.6s0.6,1,0.6,1.8v4.2H132.2L132.2,36.1z
		"/>
	<path class="st1" d="M134.2,29.7h1l1.4,3.7c0.3,0.8,0.5,1.4,0.6,1.8h0.1c0.1-0.2,0.2-0.5,0.3-1s0.7-2,1.6-4.4h1l-2.8,7.3
		c-0.3,0.7-0.6,1.2-1,1.5s-0.8,0.5-1.3,0.5c-0.3,0-0.6,0-0.9-0.1v-0.8c0.2,0,0.5,0.1,0.7,0.1c0.7,0,1.1-0.4,1.4-1.1l0.4-0.9
		C136.8,36.1,134.2,29.7,134.2,29.7z"/>
</g>
</svg>
