<svg width="291" height="80" viewBox="0 0 291 80" fill="none" xmlns="http://www.w3.org/2000/svg">
<g clip-path="url(#clip0_678_7724)">
<path d="M26.4473 46.3246L30.0698 42.89L35.5458 43.8115L37.4834 48.6701L33.3554 52.1047L28.2164 50.6806L26.4473 46.3246Z" fill="#0C0D10"/>
<path d="M17.1807 48.4188L20.2977 45.6544L25.184 46.911L26.7004 50.9319L23.1621 53.445L18.3601 51.8534L17.1807 48.4188Z" fill="#0C0D10"/>
<path d="M18.0229 52.6073L22.5721 54.4502L24.0043 57.8848L20.2975 58.9738L15.664 56.5445L14.7373 54.0314L18.0229 52.6073Z" fill="#0C0D10"/>
<path d="M16.0009 48.754L17.1803 51.8576L13.979 53.4451L10.2722 51.7697L9.52832 49.5498L12.0414 47.8325L16.0009 48.754Z" fill="#0C0D10"/>
<path d="M10.8623 43.8953L13.3543 40.7205L17.4335 41.1309L19.1184 44.8168L16.0855 47.665L11.9575 46.8273L10.8623 43.8953Z" fill="#0C0D10"/>
<path d="M18.6924 40.7204L21.7303 36.691L26.7008 37.3645L28.8069 41.8848L25.1843 45.4031L20.3823 44.4816L18.6924 40.7204Z" fill="#0C0D10"/>
<path d="M12.4628 40.2094L10.0196 43.2251L6.90255 43.4764L5.8916 41.0471L7.745 37.6125L11.1991 36.9424L12.4628 40.2094Z" fill="#0C0D10"/>
<path d="M5.38609 41.6335L6.39704 43.9791L4.62788 46.0733L2.69024 46.2409L2.4375 44.9843L3.19571 42.7225L5.38609 41.6335Z" fill="#0C0D10"/>
<path d="M1.99406 41.0471L2.69077 42.8063L1.51133 45.9058L1.00586 44.3141L1.20805 42.8901L1.99406 41.0471Z" fill="#0C0D10"/>
<path d="M1.84766 47.9807L2.69011 46.8816L4.41715 46.7367L5.13323 48.1675L3.36408 48.8376L1.84766 47.9807Z" fill="#0C0D10"/>
<path d="M0.5 44.4817L0.752737 47.1623L1.34246 46.4084L0.5 44.4817Z" fill="#0C0D10"/>
<path d="M0.920898 47.665L1.93184 46.1571L2.30926 46.911L1.17364 48.3351L0.920898 47.665Z" fill="#0C0D10"/>
<path d="M1.34277 48.6735L1.61573 49.3822L3.49103 49.9929L3.36467 49.1728L1.61573 48.3351L1.34277 48.6735Z" fill="#0C0D10"/>
<path d="M3.9541 49.2566L5.63901 48.6702L8.54717 49.5497L9.43006 51.5183L6.96251 52.1047L4.12259 50.178L3.9541 49.2566Z" fill="#0C0D10"/>
<path d="M1.84766 49.8153L4.41714 50.7602L6.56541 52.2723L6.9622 53.445L2.69011 51.489L1.84766 49.8153Z" fill="#0C0D10"/>
<path d="M3.11133 52.356L4.5435 52.9423L8.33455 57.1308L8.08181 57.6334L4.29077 54.3664L3.11133 52.356Z" fill="#0C0D10"/>
<path d="M7.39844 52.6074L9.89379 52.1047L13.8112 54.199L14.7379 56.5294L11.4523 56.377L7.91402 54.0314L7.39844 52.6074Z" fill="#0C0D10"/>
<path d="M5.55469 53.2775L6.692 54.8364L9.59847 57.5497L11.7889 58.4712L11.0677 56.7656L5.55469 53.2775Z" fill="#0C0D10"/>
<path d="M12.2939 57.2146L12.8837 59.1413L17.1802 62.023L20.8027 62.3245L19.7918 59.2251L15.4953 57.2984L12.2939 57.2146Z" fill="#0C0D10"/>
<path d="M9.3457 58.1362L12.4628 59.4631L16.5487 62.3247L17.012 64.3352L13.3541 62.5157L9.61613 58.9739L9.3457 58.1362Z" fill="#0C0D10"/>
<path d="M6.69238 56.9231L9.85159 59.5602L12.9687 62.8272L13.1793 63.618L7.8297 58.8062L6.69238 56.9231Z" fill="#0C0D10"/>
<path d="M4.88086 55.4556L6.90275 58.555H7.25995L5.97605 56.2933L4.88086 55.4556Z" fill="#0C0D10"/>
<path d="M7.66113 59.644L10.357 62.9948L13.3544 65.8824L10.1043 61.9896L7.66113 59.644Z" fill="#0C0D10"/>
<path d="M10.9463 62.157L14.9901 65.4684L17.3489 67.5182L17.7702 68.7748L13.0524 65.0889L10.9463 62.157Z" fill="#0C0D10"/>
<path d="M14.4844 67.1833L18.8651 70.7854L23.1617 72.9635L18.823 69.6822L14.4844 67.1833Z" fill="#0C0D10"/>
<path d="M24.3418 73.6335C24.426 73.6335 29.1438 76.3979 29.1438 76.3979L34.1143 77.9058L29.228 75.412L24.3418 73.6335Z" fill="#0C0D10"/>
<path d="M35.4619 78.157L40.6851 79.4973L46.1611 79.8324L40.6851 78.4083L35.4619 78.157Z" fill="#0C0D10"/>
<path d="M47.4248 80H53.2588L58.4273 78.9947L52.926 78.8774L47.4248 80Z" fill="#0C0D10"/>
<path d="M59.6943 78.8776L65.8746 77.0681L70.3396 74.8901L65.2006 76.4818L59.6943 78.8776Z" fill="#0C0D10"/>
<path d="M72.0244 74.3036L76.7422 71.7067L80.9544 68.4397L76.2881 71.3716L72.0244 74.3036Z" fill="#0C0D10"/>
<path d="M82.2178 67.5184L85.8403 64.3352L88.1992 61.5708L85.4191 64.1677L82.2178 67.5184Z" fill="#0C0D10"/>
<path d="M93.5918 52.5236L96.1192 48L97.8883 42.6388L95.4452 47.1624L93.5918 52.5236Z" fill="#0C0D10"/>
<path d="M98.2246 41.6335L99.5725 35.267L99.741 28.5654L99.1395 35.0995L98.2246 41.6335Z" fill="#0C0D10"/>
<path d="M99.7414 27.3089L99.3202 22.4502L98.7305 19.267L98.899 24.2094L99.7414 27.3089Z" fill="#0C0D10"/>
<path d="M85.841 0L89.0424 2.26178L90.2218 4.85864L88.3684 5.5288L84.9986 3.8534L83.5664 0.753927L85.841 0Z" fill="#0C0D10"/>
<path d="M90.1299 2.7644L92.4121 4.18849L94.434 6.86912L91.6539 5.36126L90.1299 2.7644Z" fill="#0C0D10"/>
<path d="M89.2109 6.45027L91.0214 5.52881L93.4232 7.37174L94.0972 8.87959L92.7492 10.0524L90.2219 8.76232L89.2109 6.45027Z" fill="#0C0D10"/>
<path d="M93.7598 7.20422L94.855 7.37176L95.9501 9.54977L94.4337 8.60485L93.7598 7.20422Z" fill="#0C0D10"/>
<path d="M94.4341 9.31348L93.3389 10.5549L94.5183 12.8167L95.782 12.5654L95.9505 10.7309L94.4341 9.31348Z" fill="#0C0D10"/>
<path d="M96.4668 11.0652L96.2031 12.9843L96.8771 13.9896L96.9613 12.4817L96.4668 11.0652Z" fill="#0C0D10"/>
<path d="M97.2977 14.2408L96.708 17.9267L97.2977 20.2019L98.0559 16.8377L97.2977 14.2408Z" fill="#0C0D10"/>
<path d="M97.8874 19.5183L97.1292 21.7801L96.708 25.8722L97.382 27.7235L98.3929 24.712L97.8874 19.5183Z" fill="#0C0D10"/>
<path d="M98.3933 26.5031L97.3824 29.3185L96.582 34.044L97.0454 36.021L98.7303 32.0352L98.983 27.8417L98.3933 26.5031Z" fill="#0C0D10"/>
<path d="M98.5615 34.4293L96.7081 38.5131L95.7393 42.9244L96.2026 44.733L98.393 38.9269L98.5615 34.4293Z" fill="#0C0D10"/>
<path d="M94.9392 44.2303L91.9906 47.3298L89.9688 51.9372L90.3057 54.3665L93.2543 51.267L95.2762 46.157L94.9392 44.2303Z" fill="#0C0D10"/>
<path d="M92.4122 45.6544C92.4122 45.5706 95.1081 42.4712 95.1081 42.4712L96.456 37.3612L95.9506 35.267L93.5917 37.8437L91.7383 42.7225L92.4122 45.6544Z" fill="#0C0D10"/>
<path d="M90.6426 43.979L91.4851 46.7434L89.042 51.9371L85.0824 54.1151L84.3242 50.4293L87.4413 45.4031L90.6426 43.979Z" fill="#0C0D10"/>
<path d="M87.4409 43.8952L90.9792 41.9685L92.8326 36.9423L91.7374 33.9451L88.7046 35.5183L86.3457 40.2094L87.4409 43.8952Z" fill="#0C0D10"/>
<path d="M92.4961 32.9215L94.0968 28.1567L96.3478 26.5031L96.9611 28.9441L95.8718 33.9451L93.5913 36.0913L92.4961 32.9215Z" fill="#0C0D10"/>
<path d="M85.0826 41.0471L86.3462 44.8729L83.3976 50.0942L78.8484 51.0995L77.6689 46.5759L80.8703 42.0524L85.0826 41.0471Z" fill="#0C0D10"/>
<path d="M85.0797 39.5811L87.6938 34.5131L86.3459 30.6772L82.2179 30.9721L79.3535 35.6021L81.0005 40.0837L85.0797 39.5811Z" fill="#0C0D10"/>
<path d="M82.3026 29.3194L80.7861 24.7958L83.3977 20.8586L87.1888 21.11L88.7895 24.8796L86.4466 29.3194H82.3026Z" fill="#0C0D10"/>
<path d="M89.9686 16.8545L88.1152 20.3561L89.5895 24.0419L92.4118 23.5393L93.7597 19.6859L92.6224 16.8545H89.9686Z" fill="#0C0D10"/>
<path d="M94.4337 20.2722L93.1396 24.0418L94.0967 26.9754L96.2281 25.089L96.5819 20.8586L95.9501 19.267L94.4337 20.2722Z" fill="#0C0D10"/>
<path d="M93.1396 16.1064L94.4337 19.0157L96.1186 17.9267L96.5819 14.7083L95.7395 13.3102L94.2652 13.6545L93.1396 16.1064Z" fill="#0C0D10"/>
<path d="M90.1292 10.2191L92.9169 10.8901L93.7594 13.074L92.6642 15.665L89.7998 15.5812C89.7998 15.5812 88.5361 12.398 88.5361 12.3142C88.5361 12.2304 90.1292 10.2191 90.1292 10.2191Z" fill="#0C0D10"/>
<path d="M83.9873 11.8953L87.6941 12.8167L89.0421 16.2513L87.1887 19.4345L83.417 19.267L81.46 14.9947L83.9873 11.8953Z" fill="#0C0D10"/>
<path d="M82.5859 6.86908L84.2405 10.8063L88.0316 11.5602L89.7738 9.21463L88.3686 6.53401L84.9145 4.94238L82.5859 6.86908Z" fill="#0C0D10"/>
<path d="M76.9108 5.61255L81.46 7.3449L83.1003 11.0651L80.6049 13.9895L76.0312 12.9424L74.0312 8.37695L76.9108 5.61255Z" fill="#0C0D10"/>
<path d="M67.3063 7.53931L72.5296 8.96339L74.6357 13.5707L71.4344 17.5079L66.0427 16.5027L63.9365 11.4765L67.3063 7.53931Z" fill="#0C0D10"/>
<path d="M62.447 11.8953L64.6113 17.4241L60.9887 21.6126L54.9231 20.9425L52.6484 15.2461L56.4277 11.0652L62.447 11.8953Z" fill="#0C0D10"/>
<path d="M62.168 22.7015L65.7905 18.2617L71.4375 19.267L73.2884 24.1256L70.0028 28.7329L64.3584 28.0628L62.168 22.7015Z" fill="#0C0D10"/>
<path d="M74.5519 25.2146L71.3506 29.9057L73.2882 34.9101H78.4272L81.1989 30.0623L79.4382 25.6334L74.5519 25.2146Z" fill="#0C0D10"/>
<path d="M72.7826 36.5236L69.4971 41.2985L71.1399 46.1529H76.6251L79.775 40.7958L78.0059 36.4398L72.7826 36.5236Z" fill="#0C0D10"/>
<path d="M67.8118 42.1361C67.8118 42.3037 69.581 47.1623 69.581 47.1623L65.7899 51.6859L59.5557 51.4346L57.9551 46.4922L62.1674 41.8212L67.8118 42.1361Z" fill="#0C0D10"/>
<path d="M60.8198 40.7958L56.8603 45.2356L50.6851 44.733L48.6885 39.288L52.8165 34.7644L58.8232 35.3801L60.8198 40.7958Z" fill="#0C0D10"/>
<path d="M78.7629 52.5236L74.6357 57.554L75.8994 61.3194L80.8699 59.8953L84.324 55.0132L83.0603 51.3508L78.7629 52.5236Z" fill="#0C0D10"/>
<path d="M81.5439 60.3141L84.998 55.4555L89.0418 53.1937L89.2945 55.4555L85.9247 60.733L82.2179 63.0073L81.5439 60.3141Z" fill="#0C0D10"/>
<path d="M80.5329 60.9006L81.0384 63.8326L76.4891 68.1861L71.6029 69.6964L71.1816 66.8483L75.5624 62.576L80.5329 60.9006Z" fill="#0C0D10"/>
<path d="M73.3719 58.22L74.5513 62.2409L70.0863 66.4294L64.4419 66.6807L63.3467 62.8273L68.2329 58.555L73.3719 58.22Z" fill="#0C0D10"/>
<path d="M69.8333 67.5183L70.1711 70.4502L65.2006 73.801L59.7246 73.8848C59.7246 73.8848 59.1349 71.0366 59.2192 71.0366C59.3034 71.0366 64.1897 67.8534 64.1897 67.8534L69.8333 67.5183Z" fill="#0C0D10"/>
<path d="M65.959 73.8011L66.0432 75.6441L71.4964 73.8849L75.9 70.8692L75.8157 69.2776L70.9295 70.7017L65.959 73.8011Z" fill="#0C0D10"/>
<path d="M77.1396 68.4397L77.1632 70.1989L81.8919 67.5182L85.5035 63.4135L85.4193 61.8462L81.7967 63.9999L77.1396 68.4397Z" fill="#0C0D10"/>
<path d="M86.6836 60.733L89.9692 55.6047L92.8335 52.6903L92.9026 54.1152L90.5656 58.101L86.7678 62.1571L86.6836 60.733Z" fill="#0C0D10"/>
<path d="M64.4428 74.6387V76.1993L58.9669 78.4083L53.7344 78.157V76.8837L59.2112 74.802L64.4428 74.6387Z" fill="#0C0D10"/>
<path d="M57.9551 71.4555L58.2078 74.4712L52.9256 76.2983L47.2559 75.3089L46.9189 72.9634L52.0579 70.8691L57.9551 71.4555Z" fill="#0C0D10"/>
<path d="M41.5361 76.5235L46.6667 75.979L52.1426 76.9842V78.3262L46.8394 79.2519L41.5361 77.9057V76.5235Z" fill="#0C0D10"/>
<path d="M34.9561 72.0418L35.3773 74.136L40.8111 75.979L45.8237 75.3088L45.6552 73.047L39.5896 71.2041L34.9561 72.0418Z" fill="#0C0D10"/>
<path d="M29.9863 74.0522V75.1756L34.9568 77.4206L39.8431 77.8219L39.9273 76.6491L34.7049 74.6386L29.9863 74.0522Z" fill="#0C0D10"/>
<path d="M51.2158 66.1781L52.2891 69.6964L57.9555 70.411L62.7575 67.0996L61.6623 63.4137L55.7651 63.0786L51.2158 66.1781Z" fill="#0C0D10"/>
<path d="M55.0068 57.1308L56.6252 61.5706L62.5047 62.0732L66.9697 57.7172L65.6218 53.2774L59.3034 53.0261L55.0068 57.1308Z" fill="#0C0D10"/>
<path d="M53.4059 57.7172L54.8625 62.3245L50.0361 65.5078L44.3074 63.9999L43.1279 59.7277L47.6772 56.6282L53.4059 57.7172Z" fill="#0C0D10"/>
<path d="M46.4141 55.5392L41.8648 58.8062L36.1361 57.2984L34.5068 53.0261L38.7048 49.5497L44.3922 50.8481L46.4141 55.5392Z" fill="#0C0D10"/>
<path d="M31.6709 60.733C31.7551 60.5654 36.0314 58.4712 36.0314 58.4712L41.4434 60.1466L43.044 64.2513L38.3263 66.3455L32.8503 64.1675L31.6709 60.733Z" fill="#0C0D10"/>
<path d="M27.8799 66.1781L32.0922 65.1729L37.6161 67.1833L38.6456 70.411L34.0121 71.2043L28.3854 68.4399L27.8799 66.1781Z" fill="#0C0D10"/>
<path d="M21.9405 62.4085L21.2598 59.6441L24.8832 58.8064L30.4914 60.9006L31.5866 64.1677L27.1603 65.1729L21.9405 62.4085Z" fill="#0C0D10"/>
<path d="M17.6865 62.9109L21.5618 63.246L26.7008 65.8822L27.2905 68.4397L23.24 68.1884L18.192 64.5863L17.6865 62.9109Z" fill="#0C0D10"/>
<path d="M14.2324 63.4136V64.5043L18.6132 68.2722L22.8255 69.7801L22.4885 68.304L18.2501 65.1727L14.2324 63.4136Z" fill="#0C0D10"/>
<path d="M19.2871 68.8586V69.5246L23.7151 72.9634L28.2171 74.3874L28.3856 73.466L23.8364 70.8691L19.2871 68.8586Z" fill="#0C0D10"/>
<path d="M24.0049 68.7749L24.3419 70.6078L29.2281 73.5833L33.7748 73.6335L33.6089 71.8744L27.7959 69.0262L24.0049 68.7749Z" fill="#0C0D10"/>
</g>
<path d="M290.073 68.6175C290.96 69.9992 290.467 71.7757 288.596 71.7757H276.973C274.609 71.7757 273.428 70.8875 272.049 68.8149L261.411 52.9256C260.525 51.7413 260.328 50.6557 260.328 47.8923V39.997C260.328 38.2205 260.919 37.1349 263.184 37.1349H265.154C269.98 37.1349 274.511 33.7794 274.511 29.1409C274.511 24.0089 270.571 20.7521 265.449 20.7521H252.35V68.9136C252.35 71.1835 251.266 71.7757 249.493 71.7757H239.742C237.969 71.7757 236.984 71.1835 236.984 68.9136V9.79736C236.984 8.02091 237.477 6.9353 239.742 6.9353H264.563C275.299 6.9353 280.027 9.10651 284.163 13.2516C287.808 16.8045 289.876 22.4299 289.876 28.7461C289.876 39.1088 282.292 46.3132 276.185 48.3858L290.073 68.6175Z" fill="#0C0D10"/>
<path d="M222.215 57.9589C224.48 57.9589 225.071 59.0445 225.071 60.821V68.9137C225.071 70.6901 224.48 71.7757 222.215 71.7757H178.089C175.823 71.7757 175.232 70.6901 175.232 68.9137V9.69873C175.232 7.92228 175.823 6.83667 178.089 6.83667H220.54C222.806 6.83667 223.397 7.92228 223.397 9.69873V17.8901C223.397 19.6666 222.806 20.7522 220.54 20.7522H190.795V31.5096H217.191C219.457 31.5096 220.048 32.5952 220.048 34.3716V42.0696C220.048 43.846 219.457 44.9316 217.191 44.9316H190.795V57.9589H222.215Z" fill="#0C0D10"/>
<path d="M162.936 52.5308C162.936 65.262 149.541 73.256 137.327 73.256C125.606 73.256 110.931 66.4463 110.931 50.9517V27.6605C110.931 12.1659 125.606 5.3562 137.327 5.3562C149.541 5.3562 161.656 11.5738 162.936 24.1076C162.936 26.4762 162.148 26.9697 159.883 26.9697H150.427C148.359 26.9697 148.26 25.0945 147.472 23.9102C145.404 20.6534 142.646 19.173 137.327 19.173C130.827 19.173 126.394 22.8246 126.394 29.0422V49.57C126.394 55.8863 130.827 59.4392 137.327 59.4392C142.646 59.4392 146.881 57.4654 147.669 52.7282C147.965 50.7543 148.162 49.1753 150.329 49.1753H159.981C162.148 49.1753 162.936 50.1622 162.936 52.5308Z" fill="#0C0D10"/>
<defs>
<clipPath id="clip0_678_7724">
<rect width="99.2412" height="80" fill="white" transform="translate(0.5)"/>
</clipPath>
</defs>
</svg>
